<?xml version="1.0" encoding="UTF-8"?> <svg xmlns="http://www.w3.org/2000/svg" width="41" height="41" viewBox="0 0 41 41" fill="none"><g opacity="0.6" clip-path="url(#clip0_347_34)"><path d="M5.49073 20.6931L16.471 31.6734C16.7041 31.9065 17.0825 31.9065 17.3156 31.6734C17.5488 31.4403 17.5488 31.0619 17.3156 30.8287L6.75768 20.2708L17.3157 9.7128C17.5488 9.47968 17.5488 9.10128 17.3157 8.86817C17.0826 8.63505 16.7042 8.63505 16.471 8.86817L5.49073 19.8485C5.25761 20.0816 5.25761 20.46 5.49073 20.6931Z" fill="black"></path><path d="M5.4909 20.693C5.59901 20.8011 5.74851 20.8678 5.91321 20.8687L34.6309 20.8686C34.9603 20.8686 35.228 20.6009 35.228 20.2715C35.228 19.9421 34.9603 19.6743 34.6309 19.6743L5.9133 19.6743C5.58389 19.6743 5.31606 19.9421 5.31606 20.2715C5.31606 20.4354 5.38278 20.5849 5.4909 20.693Z" fill="black"></path></g><defs><clipPath id="clip0_347_34"><rect width="28.6679" height="28.6679" fill="white" transform="matrix(-0.707107 -0.707107 -0.707107 0.707107 40.5425 20.2712)"></rect></clipPath></defs></svg> 