<?xml version="1.0" encoding="UTF-8"?> <svg xmlns="http://www.w3.org/2000/svg" xmlns:xlink="http://www.w3.org/1999/xlink" version="1.1" id="Layer_1" x="0px" y="0px" viewBox="0 0 1835 876" style="enable-background:new 0 0 1835 876;" xml:space="preserve"> <style type="text/css"> .st0{fill:#E7E1D6;} .st1{fill:url(#SVGID_1_);} .st2{fill:url(#SVGID_00000118388082686749032300000008675581220975706016_);} .st3{opacity:0.43;fill:url(#SVGID_00000063607257712147736360000011396129834406586250_);fill-opacity:0.33;enable-background:new ;} .st4{fill:url(#SVGID_00000075864021777048844290000005686636780437983621_);} .st5{fill:url(#SVGID_00000140707870821383177220000012097505397967376780_);} .st6{opacity:0.13;fill:url(#SVGID_00000083056125061436242070000010940394833815158407_);enable-background:new ;} .st7{fill:#FEFBF4;} .st8{opacity:0.43;fill:url(#SVGID_00000075874383697951700450000009814880436285818541_);enable-background:new ;} </style> <path class="st0" d="M1835,680H0v196h1835V680z"></path> <linearGradient id="SVGID_1_" gradientUnits="userSpaceOnUse" x1="990.7237" y1="578.9582" x2="856.2037" y2="39.6092" gradientTransform="matrix(1 0 0 -1 0 742)"> <stop offset="9.504940e-03" style="stop-color:#C4C1C4"></stop> <stop offset="3.000000e-02" style="stop-color:#9A948E"></stop> <stop offset="1" style="stop-color:#CBC2B7"></stop> </linearGradient> <path class="st1" d="M924.5,107H375v236.2V698h411.5l9-9l2.1-404.9c0-57.2,56.8-103.6,127-103.6c70.1,0,127,46.4,127,103.6V698H1487 V107H924.5L924.5,107z"></path> <linearGradient id="SVGID_00000011754241583763577420000014152543453715490210_" gradientUnits="userSpaceOnUse" x1="926.5224" y1="593.6866" x2="911.5494" y2="10.1686" gradientTransform="matrix(1 0 0 -1 0 742)"> <stop offset="9.504940e-03" style="stop-color:#AAA49D"></stop> <stop offset="3.000000e-02" style="stop-color:#AAA49D"></stop> <stop offset="1" style="stop-color:#DBD3C9"></stop> </linearGradient> <path style="fill:url(#SVGID_00000011754241583763577420000014152543453715490210_);" d="M913.5,107H364v236.2V698h422.6V284.1 c0-57.2,56.8-103.6,127-103.6c70.1,0,127,46.4,127,103.6V698H1476V107H913.5L913.5,107z"></path> <linearGradient id="SVGID_00000169523087269477092100000009593811293466806458_" gradientUnits="userSpaceOnUse" x1="1030.1705" y1="-76.0455" x2="1029.7104" y2="108.1555" gradientTransform="matrix(1 0 0 -1 0 742)"> <stop offset="0" style="stop-color:#FFFFFF;stop-opacity:0"></stop> <stop offset="0.22" style="stop-color:#E4DDD8;stop-opacity:0.23"></stop> <stop offset="0.75" style="stop-color:#A78D7F;stop-opacity:0.78"></stop> <stop offset="1" style="stop-color:#8F6E5C"></stop> </linearGradient> <path style="opacity:0.43;fill:url(#SVGID_00000169523087269477092100000009593811293466806458_);fill-opacity:0.33;enable-background:new ;" d=" M1078,698v48h113.5H1346l-255.5,79.5l-50-127.5H1078z M786.5,698h-37L714,753.5l39,28.5l42.5-93L786.5,698z"></path> <g> <linearGradient id="SVGID_00000069380971847051756480000000043653689913607098_" gradientUnits="userSpaceOnUse" x1="930.4674" y1="641.0004" x2="929.9673" y2="-2.9996" gradientTransform="matrix(1 0 0 -1 0 742)"> <stop offset="0" style="stop-color:#CBC4BB"></stop> <stop offset="6.830250e-02" style="stop-color:#DDD5CA"></stop> <stop offset="0.2329" style="stop-color:#DBD3C8"></stop> <stop offset="1" style="stop-color:#EDE7D8"></stop> </linearGradient> <path style="fill:url(#SVGID_00000069380971847051756480000000043653689913607098_);" d="M922,59H199v310.5V745h543l12.9-10.5 V291.9c0-75.2,74.8-136.2,167-136.2c92.2,0,167,61,167,136.2V745h563l10-686L922,59L922,59z"></path> </g> <g> <linearGradient id="SVGID_00000129913121486492909180000016651707302517042311_" gradientUnits="userSpaceOnUse" x1="919.4674" y1="640.0004" x2="918.9673" y2="-3.9996" gradientTransform="matrix(1 0 0 -1 0 742)"> <stop offset="0" style="stop-color:#D0C8BE"></stop> <stop offset="6.830250e-02" style="stop-color:#E3DCD1"></stop> <stop offset="0.2329" style="stop-color:#E3DCD1"></stop> <stop offset="1" style="stop-color:#F8F3E6"></stop> </linearGradient> <path style="fill:url(#SVGID_00000129913121486492909180000016651707302517042311_);" d="M911,60H188v310.5V746h553.5l2.4-453.1 c0-75.2,74.8-136.2,167-136.2c92.2,0,167,61,167,136.2V746h563l10-686L911,60L911,60z"></path> </g> <linearGradient id="SVGID_00000057867842989701564000000001927811125792373931_" gradientUnits="userSpaceOnUse" x1="1231.8502" y1="-165.6172" x2="1259.2821" y2="46.8488" gradientTransform="matrix(1 0 0 -1 0 742)"> <stop offset="0" style="stop-color:#FFFFFF;stop-opacity:0"></stop> <stop offset="0.22" style="stop-color:#E4DDD8;stop-opacity:0.23"></stop> <stop offset="0.75" style="stop-color:#A78D7F;stop-opacity:0.78"></stop> <stop offset="1" style="stop-color:#8F6E5C"></stop> </linearGradient> <path style="opacity:0.13;fill:url(#SVGID_00000057867842989701564000000001927811125792373931_);enable-background:new ;" d=" M1116,746v7h30l667,119l-691.9-25.8L1078,746H1116z M740,746h-35.5L669,801.5l35.5,29L755,735L740,746z"></path> <g> <path class="st7" d="M909.4,0H0v377v377h698.8c1.7,0,3-1.3,3-3V282.8c0-91.3,92.9-165.3,207.6-165.3c114.6,0,207.6,74,207.6,165.3 V751c0,1.7,1.3,3,3,3h715V0H909.4L909.4,0z"></path> </g> <linearGradient id="SVGID_00000059996185639949082000000004111615510300435873_" gradientUnits="userSpaceOnUse" x1="914.3447" y1="-262.6417" x2="974.3837" y2="201.5963" gradientTransform="matrix(1 0 0 -1 0 742)"> <stop offset="0" style="stop-color:#FFFFFF;stop-opacity:0"></stop> <stop offset="0.22" style="stop-color:#E4DDD8;stop-opacity:0.23"></stop> <stop offset="0.75" style="stop-color:#A78D7F;stop-opacity:0.78"></stop> <stop offset="1" style="stop-color:#8F6E5C"></stop> </linearGradient> <path style="opacity:0.43;fill:url(#SVGID_00000059996185639949082000000004111615510300435873_);enable-background:new ;" d=" M1835,754v120l-588-100l-135.8-20H1835z M43,754l579,120l80.4-120H43z"></path> </svg> 