<?xml version="1.0" encoding="UTF-8"?> <svg xmlns="http://www.w3.org/2000/svg" width="985" height="132" viewBox="0 0 985 132" fill="none"><path d="M49.2374 131.818L22.4304 69.4641L11.124 83.1381V130.177H0V2.55249H29.3601C45.2862 2.55249 53.2493 9.05525 53.2493 22.0608C53.2493 26.558 52.2767 30.5083 50.3316 33.9116C48.508 37.3149 44.6176 42.6022 38.6605 49.7735L30.4542 59.8011L59.2672 126.713L49.2374 131.818ZM11.124 13.1271V68.1878L32.0955 42.663C35.9859 37.8011 38.5389 34.0939 39.7546 31.5414C41.0919 28.989 41.7606 26.011 41.7606 22.6077C41.7606 16.2873 37.6879 13.1271 29.5424 13.1271H11.124Z" fill="black"></path><path d="M85.6526 130.177V2.55249H124.86V13.1271H96.7766V35.1878H114.101V45.0332H96.7766V119.42H124.86V130.177H85.6526Z" fill="black"></path><path d="M194.935 38.4696L192.2 41.7514C198.643 46.6133 203.445 52.0829 206.606 58.1602C209.889 64.2376 211.53 72.0166 211.53 81.4972C211.53 87.5746 210.557 93.4696 208.612 99.1823C206.789 104.773 204.053 109.939 200.406 114.68C196.759 119.42 191.774 123.188 185.452 125.983C179.13 128.779 171.897 130.177 163.751 130.177H151.533V2.55249H184.723C191.166 2.55249 196.09 4.07183 199.494 7.1105C203.02 10.1492 204.783 14.0387 204.783 18.779C204.783 22.1823 203.992 25.2818 202.412 28.0774C200.953 30.7514 198.461 34.2155 194.935 38.4696ZM183.082 13.1271H162.657V62.7182L188.37 31.3591C191.896 26.9834 193.659 23.2155 193.659 20.0553C193.659 15.4365 190.133 13.1271 183.082 13.1271ZM162.657 119.602H167.034C175.544 119.602 183.142 116.199 189.829 109.392C196.637 102.586 200.041 93.3481 200.041 81.6796C200.041 67.7017 195.057 57.3094 185.088 50.5028L162.657 77.6685V119.602Z" fill="black"></path><path d="M234.875 130.177V2.55249H274.082V13.1271H245.999V35.1878H263.323V45.0332H245.999V119.42H274.082V130.177H234.875Z" fill="black"></path><path d="M342.533 109.757L351.651 114.862C346.18 126.287 337.61 132 325.938 132C303.447 132 292.202 109.939 292.202 65.8177C292.202 21.9392 304.055 0 327.762 0C332.139 0 336.576 1.51934 341.074 4.55802C345.573 7.59669 349.098 11.8508 351.651 17.3204L343.263 23.1547C338.643 14.768 332.868 10.5746 325.938 10.5746C311.106 10.5746 303.69 28.0774 303.69 63.0829C303.69 101.856 311.41 121.243 326.85 121.243C330.619 121.243 333.658 120.331 335.968 118.508C338.278 116.564 340.467 113.646 342.533 109.757Z" fill="black"></path><path d="M409.843 109.757L418.961 114.862C413.49 126.287 404.919 132 393.248 132C370.757 132 359.511 109.939 359.511 65.8177C359.511 21.9392 371.365 0 395.072 0C399.448 0 403.886 1.51934 408.384 4.55802C412.882 7.59669 416.408 11.8508 418.961 17.3204L410.572 23.1547C405.953 14.768 400.178 10.5746 393.248 10.5746C378.416 10.5746 371 28.0774 371 63.0829C371 101.856 378.72 121.243 394.16 121.243C397.929 121.243 400.968 120.331 403.278 118.508C405.588 116.564 407.776 113.646 409.843 109.757Z" fill="black"></path><path d="M490.468 130.177L486.456 110.304L456.184 77.3039L445.972 130.177H435.212L460.925 2.55249H474.42L501.592 130.177H490.468ZM458.737 65.0884L482.626 91.1602L467.673 18.779L458.737 65.0884Z" fill="black"></path><path d="M603.245 38.4696L600.51 41.7514C606.953 46.6133 611.755 52.0829 614.916 58.1602C618.199 64.2376 619.84 72.0166 619.84 81.4972C619.84 87.5746 618.867 93.4696 616.922 99.1823C615.098 104.773 612.363 109.939 608.716 114.68C605.069 119.42 600.084 123.188 593.762 125.983C587.44 128.779 580.207 130.177 572.061 130.177H559.843V2.55249H593.033C599.476 2.55249 604.4 4.07183 607.804 7.1105C611.33 10.1492 613.092 14.0387 613.092 18.779C613.092 22.1823 612.302 25.2818 610.722 28.0774C609.263 30.7514 606.771 34.2155 603.245 38.4696ZM591.392 13.1271H570.967V62.7182L596.68 31.3591C600.206 26.9834 601.968 23.2155 601.968 20.0553C601.968 15.4365 598.443 13.1271 591.392 13.1271ZM570.967 119.602H575.344C583.854 119.602 591.452 116.199 598.139 109.392C604.947 102.586 608.351 93.3481 608.351 81.6796C608.351 67.7017 603.367 57.3094 593.398 50.5028L570.967 77.6685V119.602Z" fill="black"></path><path d="M669.97 132C658.786 132 650.397 126.652 644.805 115.956C639.212 105.26 636.416 88.6077 636.416 66C636.416 43.3923 639.212 26.7403 644.805 16.0442C650.397 5.34807 658.786 0 669.97 0C681.277 0 689.665 5.34807 695.136 16.0442C700.729 26.7403 703.525 43.3923 703.525 66C703.525 88.6077 700.729 105.26 695.136 115.956C689.665 126.652 681.277 132 669.97 132ZM647.722 66C647.722 102.95 655.138 121.425 669.97 121.425C684.802 121.425 692.218 102.95 692.218 66C692.218 29.0497 684.802 10.5746 669.97 10.5746C655.138 10.5746 647.722 29.0497 647.722 66Z" fill="black"></path><path d="M767.817 2.55249H778.941V130.177H767.817V59.6188L734.263 19.5083V130.177H723.139V2.55249H734.263L767.817 42.663V2.55249Z" fill="black"></path><path d="M862.633 130.177L858.621 110.304L828.349 77.3039L818.137 130.177H807.378L833.091 2.55249H846.585L873.757 130.177H862.633ZM830.902 65.0884L854.792 91.1602L839.838 18.779L830.902 65.0884Z" fill="black"></path><path d="M940.135 109.757L949.253 114.862C943.782 126.287 935.211 132 923.54 132C901.049 132 889.803 109.939 889.803 65.8177C889.803 21.9392 901.657 0 925.364 0C929.74 0 934.178 1.51934 938.676 4.55802C943.174 7.59669 946.7 11.8508 949.253 17.3204L940.864 23.1547C936.245 14.768 930.47 10.5746 923.54 10.5746C908.708 10.5746 901.292 28.0774 901.292 63.0829C901.292 101.856 909.012 121.243 924.452 121.243C928.221 121.243 931.26 120.331 933.57 118.508C935.88 116.564 938.068 113.646 940.135 109.757Z" fill="black"></path><path d="M973.876 130.177V2.55249H985V130.177H973.876Z" fill="black"></path></svg> 