<?xml version="1.0" encoding="UTF-8"?> <svg xmlns="http://www.w3.org/2000/svg" width="41" height="41" viewBox="0 0 41 41" fill="none"><g opacity="0.6" clip-path="url(#clip0_347_30)"><path d="M35.5093 20.6931L24.529 31.6734C24.2959 31.9065 23.9175 31.9065 23.6844 31.6734C23.4512 31.4403 23.4512 31.0619 23.6844 30.8287L34.2423 20.2708L23.6843 9.7128C23.4512 9.47968 23.4512 9.10128 23.6843 8.86817C23.9174 8.63505 24.2958 8.63505 24.529 8.86817L35.5093 19.8485C35.7424 20.0816 35.7424 20.46 35.5093 20.6931Z" fill="black"></path><path d="M35.5091 20.693C35.401 20.8011 35.2515 20.8678 35.0868 20.8687L6.36912 20.8686C6.03971 20.8686 5.77196 20.6009 5.77196 20.2715C5.77196 19.9421 6.03971 19.6743 6.36912 19.6743L35.0867 19.6743C35.4161 19.6743 35.6839 19.9421 35.6839 20.2715C35.6839 20.4354 35.6172 20.5849 35.5091 20.693Z" fill="black"></path></g><defs><clipPath id="clip0_347_30"><rect width="28.6679" height="28.6679" fill="white" transform="translate(0.45752 20.2712) rotate(-45)"></rect></clipPath></defs></svg> 