<?xml version="1.0" encoding="UTF-8"?> <svg xmlns="http://www.w3.org/2000/svg" width="17" height="12" viewBox="0 0 17 12" fill="none"><path d="M16.7007 6.41619L11.7832 11.3336C11.4407 11.6762 10.8911 11.6762 10.5485 11.3336C10.206 10.991 10.206 10.4415 10.5485 10.0989L13.9743 6.67312L0.877855 6.67312C0.392537 6.67312 2.74533e-07 6.28059 2.53319e-07 5.79527C2.32105e-07 5.30995 0.392537 4.91741 0.877855 4.91741L13.9672 4.91741L10.5414 1.49164C10.1988 1.14906 10.1988 0.59951 10.5414 0.256933C10.884 -0.0856448 11.4335 -0.0856449 11.7761 0.256933L16.6935 5.17435C16.8648 5.34563 16.9504 5.56688 16.9504 5.79527C16.9504 6.02365 16.8719 6.2449 16.7007 6.41619Z" fill="#766C6C"></path></svg> 